<?xml version="1.0" standalone="no"?><!DOCTYPE svg PUBLIC "-//W3C//DTD SVG 1.1//EN" "http://www.w3.org/Graphics/SVG/1.1/DTD/svg11.dtd"><svg t="1514205391943" class="icon" style="" viewBox="0 0 1024 1024" version="1.1" xmlns="http://www.w3.org/2000/svg" p-id="1011" xmlns:xlink="http://www.w3.org/1999/xlink" width="200" height="200"><defs><style type="text/css"></style></defs><path d="M512 9.423313C234.01227 9.423313 9.423313 234.01227 9.423313 512s224.588957 502.576687 502.576687 502.576687 502.576687-224.588957 502.576687-502.576687c0-276.417178-224.588957-502.576687-502.576687-502.576687z m251.288344 771.141104H662.773006l-9.423313-97.374233c0-7.852761-7.852761-14.134969-15.705521-14.134969s-14.134969 6.282209-15.705522 14.134969l-7.85276 97.374233H260.711656c-9.423313 0-15.705521-6.282209-15.705521-15.705521v-1.570552l15.705521-266.993865h502.576688l14.134969 266.993865c1.570552 9.423313-4.711656 17.276074-14.134969 17.276073z m17.276073-320.392638H243.435583v-111.509202c0-9.423313 6.282209-15.705521 15.705521-15.705522h186.895706v-135.067484c0-36.122699 29.840491-67.533742 67.533742-67.533743 36.122699 0 67.533742 29.840491 67.533742 67.533743v135.067484h185.325154c9.423313 0 15.705521 6.282209 15.705521 15.705522v111.509202z" fill="#2ca7f8" p-id="1012"></path></svg>
