<?xml version="1.0" standalone="no"?><!DOCTYPE svg PUBLIC "-//W3C//DTD SVG 1.1//EN" "http://www.w3.org/Graphics/SVG/1.1/DTD/svg11.dtd"><svg t="1514305735285" class="icon" style="" viewBox="0 0 1024 1024" version="1.1" xmlns="http://www.w3.org/2000/svg" p-id="1963" xmlns:xlink="http://www.w3.org/1999/xlink" width="200" height="200"><defs><style type="text/css"></style></defs><path d="M748.2 1023.9h-1c-159.3-5.5-303.7-47.5-429.1-124.9-101.5-62.6-163.8-132.4-191.8-168.4-8.8-11.3-10.9-25.9-5.7-39.2 5.2-13.3 16.7-22.6 30.7-24.9C465.9 614.7 554 466.7 554.8 465.2c6.6-11.5 21.3-15.5 32.8-8.9 11.5 6.6 15.5 21.3 8.9 32.8-1 1.8-26.1 44.7-93.4 93.7-38.7 28.1-83.8 52.8-134.1 73.5-58.7 24.1-124.7 42.7-196.4 55.4 58 70.2 236.8 248.5 564.7 263.8C767 934.9 889.4 744.7 941.8 588c-4.2-2-9-4.2-14.4-6.7-20.9-9.8-49.8-23.4-82.3-38.7-91.5-43-205.4-96.6-249.2-117-11.5-5.4-19.8-16-22.3-28.5-2.4-12.4 1.2-25.4 9.8-34.7 15.7-17 41.9-40.2 77.6-53.7 38.4-14.6 78.3-14.7 118.8-0.5 9.2-16.6 24.2-47.8 36.8-74.1 21.7-45.1 46.3-96.2 70.5-139.1 32.1-57 55-95.5 77.6-93 11.6 1.3 15.7 1.3 27.8 4 41.7 9.1 28 64.6 24.6 84-6.3 35.6-22 88.2-45.9 167.6-11.5 38.1-24.3 80.9-39 131.2 26.1 18.9 77.5 57.1 85.3 112.8 4 28.8-4.3 57.2-24.7 84.6-30.2 98.2-87.8 207.5-131.2 282.3C833 918 809.1 955 797.4 972.7c-8.2 12.3-15.5 22.9-21.1 30.7-8.3 11.4-15 20.5-28.1 20.5z m208-482.6l6.5 3.1c6.5-12.4 8.9-24.3 7.3-36.2-5.1-36.6-47.2-67-67.4-81.6-4-2.9-7.1-5.1-9.7-7.2-3.3-2.7-12.1-9.7-12.2-21.9 0-3.1 0.5-6.2 1.6-9.1 16.3-56.2 30.4-103.1 42.9-144.6 23.4-77.9 38.8-129.3 44.6-162.1 2.4-13.8 9.5-25.3 2.2-26.9C954.7 50 950.5 80 927.5 121s-46.7 90.3-67.6 133.8c-13.1 27.1-24.3 50.6-33.4 67.7-5.2 9.8-9.2 16.7-12.6 21.7-2.6 3.8-4.9 6.6-7.2 8.8-7.7 7.4-17.9 9.8-27.2 6.5l-0.9-0.3-0.9-0.4c-70.3-31.7-122.5 0.5-151 28 49.5 23.2 154 72.3 239 112.3 36 16.9 69 32.4 90.5 42.5v-0.3zM221.8 550.6c-53.9 0-97.8-43.9-97.8-97.8s43.9-97.8 97.8-97.8 97.8 43.9 97.8 97.8-43.9 97.8-97.8 97.8z m0-159.5c-34.1 0-61.8 27.7-61.8 61.8s27.7 61.8 61.8 61.8c34.1 0 61.8-27.7 61.8-61.8s-27.8-61.8-61.8-61.8zM73.8 301.4c-37.3 0-67.6-30.3-67.6-67.6s30.3-67.6 67.6-67.6 67.6 30.3 67.6 67.6-30.3 67.6-67.6 67.6z m0-105.2c-20.7 0-37.6 16.9-37.6 37.6 0 20.7 16.9 37.6 37.6 37.6s37.6-16.9 37.6-37.6c0-20.7-16.9-37.6-37.6-37.6zM219.7 139.8c-28.5 0-51.7-23.2-51.7-51.7 0-28.5 23.2-51.7 51.7-51.7s51.7 23.2 51.7 51.7c0 28.4-23.2 51.7-51.7 51.7z m0-77.5C205.5 62.3 194 73.8 194 88s11.5 25.7 25.7 25.7 25.7-11.5 25.7-25.7-11.5-25.7-25.7-25.7z" p-id="1964" fill="#2ca7f8"></path></svg>